<svg xmlns="http://www.w3.org/2000/svg" viewBox="0 0 100 100">
  <rect width="100" height="100" rx="28" fill="#0D9488"/>

  <!-- Left lobe -->
  <path fill="white" d="M50 14 C46 10 40 9 35 12 C31 8 24 8 20 13 C15 18 15 26 18 32 C14 35 12 41 15 47 C18 53 25 56 31 55 L31 65 L50 65 Z"/>
  <!-- Right lobe -->
  <path fill="white" d="M50 14 C54 10 60 9 65 12 C69 8 76 8 80 13 C85 18 85 26 82 32 C86 35 88 41 85 47 C82 53 75 56 69 55 L69 65 L50 65 Z"/>
  <!-- Base -->
  <rect x="31" y="63" width="38" height="10" rx="5" fill="white"/>

  <!-- Left eye -->
  <circle cx="33" cy="40" r="4.5" fill="#0D9488"/>
  <!-- Right eye -->
  <circle cx="67" cy="40" r="4.5" fill="#0D9488"/>
  <!-- Smile -->
  <path d="M38 52 Q50 62 62 52" stroke="#0D9488" stroke-width="3.5" stroke-linecap="round" fill="none"/>
</svg>
